<svg width="65" height="64" viewBox="0 0 65 64" fill="none" xmlns="http://www.w3.org/2000/svg">
<path d="M17.6442 6.43485C17.9804 6.03359 18.1459 5.51651 18.1051 4.99461C18.0643 4.47271 17.8205 3.9876 17.4261 3.64342C17.0316 3.29925 16.518 3.12344 15.9954 3.15375C15.4728 3.18405 14.9829 3.41806 14.6308 3.80552L11.1855 7.75219C9.23186 9.99103 8.12748 12.8454 8.06551 15.8162L7.91351 23.0669C7.90255 23.5973 8.10275 24.1103 8.47007 24.4932C8.83739 24.876 9.34175 25.0972 9.87218 25.1082C10.4026 25.1191 10.9157 24.9189 11.2985 24.5516C11.6813 24.1843 11.9026 23.68 11.9135 23.1495L12.0628 15.9015C12.1056 13.8688 12.8617 11.9158 14.1988 10.3842L17.6442 6.43485Z" fill="#043CAA"/>
<path fill-rule="evenodd" clip-rule="evenodd" d="M17.1322 20.533C17.3113 17.68 18.5709 15.0026 20.6547 13.0456C22.7384 11.0887 25.4896 9.99949 28.3482 9.99967H29.8335V7.99967C29.8335 7.29243 30.1145 6.61415 30.6146 6.11406C31.1147 5.61396 31.7929 5.33301 32.5002 5.33301C33.2074 5.33301 33.8857 5.61396 34.3858 6.11406C34.8859 6.61415 35.1669 7.29243 35.1669 7.99967V9.99967H36.6522C39.5108 9.99949 42.262 11.0887 44.3457 13.0456C46.4295 15.0026 47.6891 17.68 47.8682 20.533L48.4575 29.957C48.6821 33.5502 49.8886 37.0129 51.9455 39.9677C52.3705 40.5785 52.6302 41.2889 52.6993 42.0298C52.7684 42.7708 52.6446 43.5169 52.3399 44.1958C52.0352 44.8747 51.56 45.4632 50.9605 45.9041C50.3611 46.3449 49.6577 46.6232 48.9189 46.7117L39.8335 47.7997V50.6663C39.8335 52.6113 39.0609 54.4765 37.6856 55.8518C36.3104 57.2271 34.4451 57.9997 32.5002 57.9997C30.5553 57.9997 28.69 57.2271 27.3147 55.8518C25.9395 54.4765 25.1669 52.6113 25.1669 50.6663V47.7997L16.0815 46.709C15.3431 46.6202 14.6402 46.342 14.0411 45.9013C13.442 45.4606 12.9671 44.8724 12.6625 44.194C12.3578 43.5155 12.2339 42.7697 12.3026 42.0292C12.3714 41.2887 12.6305 40.5785 13.0549 39.9677C15.1117 37.0128 16.3181 33.5502 16.5429 29.957L17.1322 20.533ZM29.1669 50.6663C29.1669 51.5504 29.518 52.3982 30.1432 53.0234C30.7683 53.6485 31.6161 53.9997 32.5002 53.9997C33.3842 53.9997 34.2321 53.6485 34.8572 53.0234C35.4823 52.3982 35.8335 51.5504 35.8335 50.6663V48.6663H29.1669V50.6663Z" fill="#0443BD"/>
<path d="M47.5481 3.61289C47.1486 3.96162 46.9039 4.45473 46.8679 4.9838C46.8319 5.51287 47.0075 6.03458 47.356 6.43422L50.8014 10.3809C52.1381 11.9136 52.8933 13.8676 52.9347 15.9009L53.0867 23.1462C53.0921 23.4089 53.1493 23.6679 53.2548 23.9084C53.3603 24.149 53.5122 24.3665 53.7017 24.5483C53.8913 24.7302 54.1148 24.873 54.3595 24.9685C54.6043 25.064 54.8654 25.1103 55.1281 25.1049C55.3907 25.0995 55.6497 25.0424 55.8903 24.9368C56.1308 24.8313 56.3483 24.6794 56.5302 24.4899C56.712 24.3003 56.8548 24.0768 56.9503 23.8321C57.0458 23.5873 57.0921 23.3262 57.0867 23.0636L56.9347 15.8156C56.8728 12.8448 55.7684 9.9904 53.8147 7.75155L50.3694 3.80489C50.0207 3.40539 49.5275 3.16074 48.9985 3.12474C48.4694 3.08873 47.9477 3.26432 47.5481 3.61289Z" fill="#043CAA"/>
</svg>
