<svg width="20" height="20" viewBox="0 0 20 20" fill="none" xmlns="http://www.w3.org/2000/svg">
<path d="M9.99984 1.66669C5.39984 1.66669 1.6665 5.40002 1.6665 10C1.6665 14.6 5.39984 18.3334 9.99984 18.3334C14.5998 18.3334 18.3332 14.6 18.3332 10C18.3332 5.40002 14.5998 1.66669 9.99984 1.66669ZM7.7415 13.575L4.74984 10.5834C4.42484 10.2584 4.42484 9.73335 4.74984 9.40835C5.07484 9.08335 5.59984 9.08335 5.92484 9.40835L8.33317 11.8084L14.0665 6.07502C14.3915 5.75002 14.9165 5.75002 15.2415 6.07502C15.5665 6.40002 15.5665 6.92502 15.2415 7.25002L8.9165 13.575C8.59984 13.9 8.0665 13.9 7.7415 13.575Z" fill="#0444BD"/>
</svg>
