<svg width="24" height="24" viewBox="0 0 24 24" fill="none" xmlns="http://www.w3.org/2000/svg">
<path d="M4 20.1549C3.45 20.1549 2.97917 19.959 2.5875 19.5674C2.19583 19.1757 2 18.7049 2 18.1549V4.15488C2 3.60488 2.19583 3.13405 2.5875 2.74238C2.97917 2.35072 3.45 2.15488 4 2.15488H12.925L10.925 4.15488H4V18.1549H18V11.2049L20 9.20488V18.1549C20 18.7049 19.8042 19.1757 19.4125 19.5674C19.0208 19.959 18.55 20.1549 18 20.1549H4ZM8 14.1549V9.90488L17.175 0.729883C17.375 0.529883 17.6 0.379883 17.85 0.279883C18.1 0.179883 18.35 0.129883 18.6 0.129883C18.8667 0.129883 19.1208 0.179883 19.3625 0.279883C19.6042 0.379883 19.825 0.529883 20.025 0.729883L21.425 2.15488C21.6083 2.35488 21.75 2.57572 21.85 2.81738C21.95 3.05905 22 3.30488 22 3.55488C22 3.80488 21.9542 4.05072 21.8625 4.29238C21.7708 4.53405 21.625 4.75488 21.425 4.95488L12.25 14.1549H8ZM10 12.1549H11.4L17.2 6.35488L16.5 5.65488L15.775 4.95488L10 10.7299V12.1549Z" fill="#0443BD"/>
</svg>
