<svg width="22" height="17" viewBox="0 0 22 20" fill="none" xmlns="http://www.w3.org/2000/svg">
<path d="M11 3.9748C14.79 3.9748 18.17 6.1048 19.82 9.4748C19.23 10.6948 18.4 11.7448 17.41 12.5948L18.82 14.0048C20.21 12.7748 21.31 11.2348 22 9.4748C20.27 5.08481 16 1.9748 11 1.9748C9.73 1.9748 8.51 2.1748 7.36 2.5448L9.01 4.1948C9.66 4.0648 10.32 3.9748 11 3.9748ZM9.93 5.1148L12 7.1848C12.57 7.4348 13.03 7.8948 13.28 8.4648L15.35 10.5348C15.43 10.1948 15.49 9.8348 15.49 9.4648C15.5 6.9848 13.48 4.9748 11 4.9748C10.63 4.9748 10.28 5.0248 9.93 5.1148ZM1.01 1.8448L3.69 4.52481C2.06 5.8048 0.77 7.5048 0 9.4748C1.73 13.8648 6 16.9748 11 16.9748C12.52 16.9748 13.98 16.6848 15.32 16.1548L18.74 19.5748L20.15 18.1648L2.42 0.424805L1.01 1.8448ZM8.51 9.3448L11.12 11.9548C11.08 11.9648 11.04 11.9748 11 11.9748C9.62 11.9748 8.5 10.8548 8.5 9.4748C8.5 9.4248 8.51 9.3948 8.51 9.3448ZM5.11 5.9448L6.86 7.69481C6.63 8.24481 6.5 8.8448 6.5 9.4748C6.5 11.9548 8.52 13.9748 11 13.9748C11.63 13.9748 12.23 13.8448 12.77 13.6148L13.75 14.5948C12.87 14.8348 11.95 14.9748 11 14.9748C7.21 14.9748 3.83 12.8448 2.18 9.4748C2.88 8.04481 3.9 6.8648 5.11 5.9448Z" fill="#a1b1cf"/>
</svg>
