<svg width="20" height="14" viewBox="0 0 18 12" fill="none" xmlns="http://www.w3.org/2000/svg">
<path d="M12.6596 2.06813C11.5075 1.44435 10.2007 1 8.81573 1C5.60263 1 2.81028 3.39168 1.39363 4.86678C0.775804 5.51009 0.775804 6.48991 1.39363 7.13322C2.81028 8.60832 5.60263 11 8.81573 11C12.0288 11 14.8212 8.60832 16.2378 7.13322C16.8556 6.48991 16.8552 5.50959 16.2374 4.86629C15.8449 4.45771 15.347 3.97886 14.7638 3.5M10.9187 6C10.9187 7.10457 9.97717 8 8.81573 8C7.65428 8 6.71275 7.10457 6.71275 6C6.71275 4.89543 7.65428 4 8.81573 4C9.97717 4 10.9187 4.89543 10.9187 6Z" stroke="#a1b1cf" stroke-width="1.5" stroke-linecap="round" stroke-linejoin="round"/>
</svg>
