<svg width="65" height="64" viewBox="0 0 65 64" fill="none" xmlns="http://www.w3.org/2000/svg">
<path d="M40.86 33.333C40.54 33.333 40.2067 33.2797 39.8867 33.173C39.2856 32.9816 38.7618 32.6024 38.3922 32.0912C38.0226 31.5801 37.8267 30.9638 37.8333 30.333V26.5863C34.82 26.1063 32.5 23.4797 32.5 20.333V11.6663C32.5 8.17301 35.34 5.33301 38.8333 5.33301H54.1667C57.66 5.33301 60.5 8.17301 60.5 11.6663V20.333C60.5 23.8263 57.66 26.6663 54.1667 26.6663H47.34L43.2333 32.133C42.6467 32.9063 41.78 33.333 40.86 33.333ZM38.8333 8.66634C37.18 8.66634 35.8333 10.013 35.8333 11.6663V20.333C35.8333 21.9863 37.18 23.333 38.8333 23.333H41.1667V29.333L45.6733 23.333H54.18C55.8333 23.333 57.18 21.9863 57.18 20.333V11.6663C57.18 10.013 55.8333 8.66634 54.18 8.66634H38.8333ZM21.8333 36.6663C16.3133 36.6663 11.8333 32.1863 11.8333 26.6663C11.8333 21.1463 16.3133 16.6663 21.8333 16.6663C27.3533 16.6663 31.8333 21.1463 31.8333 26.6663C31.8333 32.1863 27.3533 36.6663 21.8333 36.6663ZM21.8333 19.9997C18.1533 19.9997 15.1667 22.9863 15.1667 26.6663C15.1667 30.3463 18.1533 33.333 21.8333 33.333C25.5133 33.333 28.5 30.3463 28.5 26.6663C28.5 22.9863 25.5133 19.9997 21.8333 19.9997ZM4.5 46.3863C4.5 46.5063 4.7 58.6663 21.8333 58.6663C38.9667 58.6663 39.1667 46.5063 39.1667 46.3863V44.9997C39.1667 42.2397 36.9267 39.9997 34.1667 39.9997H9.5C6.74 39.9997 4.5 42.2397 4.5 44.9997V46.3863ZM7.83333 44.9997C7.83333 44.0797 8.58 43.333 9.5 43.333H34.1667C35.0867 43.333 35.8333 44.0797 35.8333 44.9997V46.373C35.8333 46.733 35.54 55.333 21.8333 55.333C8.12667 55.333 7.83333 46.733 7.83333 46.3863V44.9997Z" fill="#0443BD"/>
</svg>
