<svg width="65" height="64" viewBox="0 0 65 64" fill="none" xmlns="http://www.w3.org/2000/svg">
<path d="M16.5 6C16.5 5.46957 16.2893 4.96086 15.9142 4.58579C15.5391 4.21071 15.0304 4 14.5 4C13.9696 4 13.4609 4.21071 13.0858 4.58579C12.7107 4.96086 12.5 5.46957 12.5 6V18C12.4995 20.3053 13.2956 22.54 14.7534 24.3258C16.2112 26.1116 18.2413 27.3389 20.5 27.8V58C20.5 58.5304 20.7107 59.0391 21.0858 59.4142C21.4609 59.7893 21.9696 60 22.5 60C23.0304 60 23.5391 59.7893 23.9142 59.4142C24.2893 59.0391 24.5 58.5304 24.5 58V27.8C26.7587 27.3389 28.7888 26.1116 30.2466 24.3258C31.7044 22.54 32.5005 20.3053 32.5 18V6C32.5 5.46957 32.2893 4.96086 31.9142 4.58579C31.5391 4.21071 31.0304 4 30.5 4C29.9696 4 29.4609 4.21071 29.0858 4.58579C28.7107 4.96086 28.5 5.46957 28.5 6V18C28.5007 19.2413 28.1163 20.4523 27.3999 21.466C26.6835 22.4797 25.6703 23.2462 24.5 23.66V6C24.5 5.46957 24.2893 4.96086 23.9142 4.58579C23.5391 4.21071 23.0304 4 22.5 4C21.9696 4 21.4609 4.21071 21.0858 4.58579C20.7107 4.96086 20.5 5.46957 20.5 6V23.66C19.3297 23.2462 18.3165 22.4797 17.6001 21.466C16.8837 20.4523 16.4993 19.2413 16.5 18V6ZM44.5 58V32H38.5C37.9696 32 37.4609 31.7893 37.0858 31.4142C36.7107 31.0391 36.5 30.5304 36.5 30V14C36.5 11.348 37.804 8.868 39.584 7.084C41.368 5.304 43.848 4 46.5 4C47.0304 4 47.5391 4.21071 47.9142 4.58579C48.2893 4.96086 48.5 5.46957 48.5 6V58C48.5 58.5304 48.2893 59.0391 47.9142 59.4142C47.5391 59.7893 47.0304 60 46.5 60C45.9696 60 45.4609 59.7893 45.0858 59.4142C44.7107 59.0391 44.5 58.5304 44.5 58Z" fill="#0443BD"/>
</svg>
