<svg width="150" height="308" viewBox="0 0 150 308" fill="none" xmlns="http://www.w3.org/2000/svg">
<ellipse cx="49" cy="12.5" rx="12" ry="12.5" fill="#D30F18"/>
<rect x="65" y="2" width="23" height="23" rx="2" fill="#359936"/>
<rect x="92" y="2" width="23" height="23" rx="2" fill="#359936"/>
<rect x="38" y="28" width="23" height="23" rx="2" fill="#359936"/>
<rect x="65" y="28" width="23" height="23" rx="2" fill="#359936"/>
<rect x="38" y="54" width="23" height="23" rx="2" fill="#359936"/>
<rect x="65" y="54" width="23" height="23" rx="2" fill="#359936"/>
<rect x="92" y="54" width="23" height="23" rx="2" fill="#359936"/>
<rect x="38" y="80" width="23" height="23" rx="2" fill="#359936"/>
<rect x="65" y="80" width="23" height="23" rx="2" fill="#359936"/>
<path d="M12.1609 127.545V145H8.99893V127.545H12.1609ZM29.9286 127.545V145H27.1161L18.8917 133.111H18.7468V145H15.5849V127.545H18.4144L26.6303 139.443H26.7837V127.545H29.9286ZM42.8597 132.344C42.7802 131.599 42.445 131.02 41.854 130.605C41.2688 130.19 40.5075 129.983 39.57 129.983C38.9109 129.983 38.3455 130.082 37.8739 130.281C37.4023 130.48 37.0415 130.75 36.7915 131.091C36.5415 131.432 36.4137 131.821 36.408 132.259C36.408 132.622 36.4904 132.937 36.6552 133.205C36.8256 133.472 37.0558 133.699 37.3455 133.886C37.6353 134.068 37.9563 134.222 38.3086 134.347C38.6609 134.472 39.016 134.577 39.3739 134.662L41.0103 135.071C41.6694 135.224 42.3029 135.432 42.9109 135.693C43.5245 135.955 44.0728 136.284 44.5558 136.682C45.0444 137.08 45.4308 137.56 45.7148 138.122C45.9989 138.685 46.141 139.344 46.141 140.099C46.141 141.122 45.8796 142.023 45.3569 142.801C44.8342 143.574 44.0785 144.179 43.0898 144.616C42.1069 145.048 40.9165 145.264 39.5188 145.264C38.1609 145.264 36.9819 145.054 35.9819 144.634C34.9876 144.213 34.2092 143.599 33.6467 142.793C33.0898 141.986 32.7887 141.003 32.7433 139.844H35.854C35.8995 140.452 36.087 140.957 36.4165 141.361C36.7461 141.764 37.1751 142.065 37.7035 142.264C38.2376 142.463 38.8342 142.562 39.4933 142.562C40.1808 142.562 40.783 142.46 41.3001 142.256C41.8228 142.045 42.2319 141.756 42.5273 141.386C42.8228 141.011 42.9734 140.574 42.979 140.074C42.9734 139.619 42.8398 139.244 42.5785 138.949C42.3171 138.648 41.9506 138.398 41.479 138.199C41.0131 137.994 40.4677 137.812 39.8427 137.653L37.8569 137.142C36.4194 136.773 35.283 136.213 34.4478 135.463C33.6183 134.707 33.2035 133.705 33.2035 132.455C33.2035 131.426 33.4819 130.526 34.0387 129.753C34.6012 128.98 35.3654 128.381 36.3313 127.955C37.2972 127.523 38.391 127.307 39.6126 127.307C40.8512 127.307 41.9364 127.523 42.8683 127.955C43.8058 128.381 44.5415 128.974 45.0756 129.736C45.6097 130.491 45.8853 131.361 45.9023 132.344H42.8597ZM48.1928 130.196V127.545H62.119V130.196H56.7241V145H53.5877V130.196H48.1928ZM67.9656 127.545V145H64.8036V127.545H67.9656ZM70.6225 130.196V127.545H84.5487V130.196H79.1538V145H76.0174V130.196H70.6225ZM98.2362 127.545H101.398V138.949C101.398 140.199 101.103 141.298 100.512 142.247C99.9265 143.196 99.1026 143.937 98.0401 144.472C96.9776 145 95.7362 145.264 94.3157 145.264C92.8896 145.264 91.6452 145 90.5827 144.472C89.5202 143.937 88.6964 143.196 88.1112 142.247C87.5259 141.298 87.2333 140.199 87.2333 138.949V127.545H90.3952V138.685C90.3952 139.412 90.5543 140.06 90.8725 140.628C91.1964 141.196 91.6509 141.642 92.2362 141.966C92.8214 142.284 93.5146 142.443 94.3157 142.443C95.1168 142.443 95.81 142.284 96.3952 141.966C96.9862 141.642 97.4407 141.196 97.7589 140.628C98.0771 140.06 98.2362 139.412 98.2362 138.685V127.545ZM104.068 130.196V127.545H117.994V130.196H112.599V145H109.463V130.196H104.068ZM135.502 136.273C135.502 138.153 135.15 139.764 134.445 141.105C133.746 142.44 132.792 143.463 131.581 144.173C130.377 144.884 129.01 145.239 127.482 145.239C125.953 145.239 124.584 144.884 123.374 144.173C122.169 143.457 121.215 142.432 120.51 141.097C119.811 139.756 119.462 138.148 119.462 136.273C119.462 134.392 119.811 132.784 120.51 131.449C121.215 130.108 122.169 129.082 123.374 128.372C124.584 127.662 125.953 127.307 127.482 127.307C129.01 127.307 130.377 127.662 131.581 128.372C132.792 129.082 133.746 130.108 134.445 131.449C135.15 132.784 135.502 134.392 135.502 136.273ZM132.323 136.273C132.323 134.949 132.115 133.832 131.701 132.923C131.292 132.009 130.723 131.318 129.996 130.852C129.269 130.381 128.431 130.145 127.482 130.145C126.533 130.145 125.695 130.381 124.968 130.852C124.24 131.318 123.669 132.009 123.255 132.923C122.846 133.832 122.641 134.949 122.641 136.273C122.641 137.597 122.846 138.716 123.255 139.631C123.669 140.54 124.24 141.23 124.968 141.702C125.695 142.168 126.533 142.401 127.482 142.401C128.431 142.401 129.269 142.168 129.996 141.702C130.723 141.23 131.292 140.54 131.701 139.631C132.115 138.716 132.323 137.597 132.323 136.273ZM23.1317 180V162.545H34.3136V165.196H26.2937V169.935H33.5465V172.585H26.2937V180H23.1317ZM37.1942 180V162.545H48.5465V165.196H40.3562V169.935H47.9585V172.585H40.3562V177.349H48.6147V180H37.1942ZM57.6871 180H51.7724V162.545H57.8065C59.5394 162.545 61.0281 162.895 62.2724 163.594C63.5224 164.287 64.4826 165.284 65.1531 166.585C65.8235 167.886 66.1587 169.443 66.1587 171.256C66.1587 173.074 65.8207 174.636 65.1445 175.943C64.4741 177.25 63.5053 178.253 62.2383 178.952C60.9769 179.651 59.4599 180 57.6871 180ZM54.9343 177.264H57.5337C58.7496 177.264 59.7638 177.043 60.5763 176.599C61.3888 176.151 61.9996 175.483 62.4087 174.597C62.8178 173.705 63.0224 172.591 63.0224 171.256C63.0224 169.92 62.8178 168.812 62.4087 167.932C61.9996 167.045 61.3945 166.384 60.5934 165.946C59.7979 165.503 58.8093 165.281 57.6275 165.281H54.9343V177.264ZM69.163 180V162.545H80.5153V165.196H72.3249V169.935H79.9272V172.585H72.3249V177.349H80.5835V180H69.163ZM83.7411 180V162.545H90.2866C91.6275 162.545 92.7525 162.778 93.6616 163.244C94.5764 163.71 95.2667 164.364 95.7326 165.205C96.2042 166.04 96.44 167.014 96.44 168.128C96.44 169.247 96.2014 170.219 95.7241 171.043C95.2525 171.861 94.5565 172.494 93.636 172.943C92.7156 173.386 91.5849 173.608 90.244 173.608H85.582V170.983H89.8178C90.6019 170.983 91.244 170.875 91.744 170.659C92.244 170.437 92.6133 170.116 92.8519 169.696C93.0962 169.27 93.2184 168.747 93.2184 168.128C93.2184 167.509 93.0962 166.98 92.8519 166.543C92.6076 166.099 92.2354 165.764 91.7354 165.537C91.2354 165.304 90.5906 165.188 89.8008 165.188H86.9031V180H83.7411ZM92.7582 172.091L97.0792 180H93.5508L89.3065 172.091H92.7582ZM101.592 180H98.217L104.362 162.545H108.265L114.419 180H111.044L106.382 166.125H106.245L101.592 180ZM101.703 173.156H110.907V175.696H101.703V173.156ZM116.718 180V162.545H119.88V177.349H127.567V180H116.718Z" fill="black"/>
<path d="M42.1527 252H40.5504C40.4311 251.403 40.2152 250.852 39.9027 250.347C39.5959 249.835 39.2095 249.389 38.7436 249.009C38.2777 248.628 37.7493 248.332 37.1584 248.122C36.5675 247.912 35.9283 247.807 35.2408 247.807C34.1385 247.807 33.1328 248.094 32.2237 248.668C31.3203 249.241 30.5959 250.085 30.0504 251.199C29.5107 252.307 29.2408 253.665 29.2408 255.273C29.2408 256.892 29.5107 258.256 30.0504 259.364C30.5959 260.472 31.3203 261.312 32.2237 261.886C33.1328 262.455 34.1385 262.739 35.2408 262.739C35.9283 262.739 36.5675 262.634 37.1584 262.423C37.7493 262.213 38.2777 261.92 38.7436 261.545C39.2095 261.165 39.5959 260.719 39.9027 260.207C40.2152 259.696 40.4311 259.142 40.5504 258.545H42.1527C42.0107 259.347 41.7436 260.094 41.3516 260.787C40.9652 261.474 40.4709 262.077 39.8686 262.594C39.272 263.111 38.5845 263.514 37.8061 263.804C37.0277 264.094 36.1726 264.239 35.2408 264.239C33.7749 264.239 32.4737 263.872 31.3374 263.139C30.201 262.401 29.3089 261.361 28.6612 260.02C28.0192 258.679 27.6982 257.097 27.6982 255.273C27.6982 253.449 28.0192 251.866 28.6612 250.526C29.3089 249.185 30.201 248.148 31.3374 247.415C32.4737 246.676 33.7749 246.307 35.2408 246.307C36.1726 246.307 37.0277 246.452 37.8061 246.741C38.5845 247.026 39.272 247.429 39.8686 247.952C40.4709 248.469 40.9652 249.071 41.3516 249.759C41.7436 250.446 42.0107 251.193 42.1527 252ZM49.2372 264.298C48.4474 264.298 47.7259 264.145 47.0724 263.838C46.419 263.526 45.8991 263.077 45.5128 262.491C45.1264 261.901 44.9332 261.185 44.9332 260.344C44.9332 259.696 45.0554 259.151 45.2997 258.707C45.544 258.264 45.8906 257.901 46.3395 257.616C46.7884 257.332 47.3196 257.108 47.9332 256.943C48.5469 256.778 49.223 256.651 49.9616 256.56C50.6946 256.469 51.3139 256.389 51.8196 256.321C52.331 256.253 52.7202 256.145 52.9872 255.997C53.2543 255.849 53.3878 255.611 53.3878 255.281V254.974C53.3878 254.082 53.1207 253.381 52.5866 252.869C52.0582 252.352 51.2969 252.094 50.3026 252.094C49.3594 252.094 48.5895 252.301 47.9929 252.716C47.402 253.131 46.9872 253.619 46.7486 254.182L45.3082 253.662C45.6037 252.946 46.0128 252.375 46.5355 251.949C47.0582 251.517 47.6435 251.207 48.2912 251.02C48.9389 250.827 49.5952 250.73 50.2599 250.73C50.7599 250.73 51.2798 250.795 51.8196 250.926C52.3651 251.057 52.8707 251.284 53.3366 251.608C53.8026 251.926 54.1804 252.372 54.4702 252.946C54.7599 253.514 54.9048 254.236 54.9048 255.111V264H53.3878V261.929H53.294C53.1122 262.315 52.8423 262.69 52.4844 263.054C52.1264 263.418 51.6776 263.716 51.1378 263.949C50.598 264.182 49.9645 264.298 49.2372 264.298ZM49.4418 262.909C50.2486 262.909 50.9474 262.73 51.5384 262.372C52.1293 262.014 52.5838 261.54 52.902 260.949C53.2259 260.352 53.3878 259.696 53.3878 258.98V257.088C53.2741 257.196 53.0838 257.293 52.8168 257.378C52.5554 257.463 52.2514 257.54 51.9048 257.608C51.5639 257.67 51.223 257.724 50.8821 257.77C50.5412 257.815 50.2344 257.855 49.9616 257.889C49.223 257.98 48.5923 258.122 48.0696 258.315C47.5469 258.509 47.1463 258.776 46.8679 259.116C46.5895 259.452 46.4503 259.884 46.4503 260.412C46.4503 261.207 46.7344 261.824 47.3026 262.261C47.8707 262.693 48.5838 262.909 49.4418 262.909ZM58.9403 264V250.909H60.4148V252.92H60.5511C60.8125 252.244 61.2472 251.713 61.8551 251.327C62.4688 250.935 63.2045 250.739 64.0625 250.739C64.9659 250.739 65.7074 250.952 66.2869 251.378C66.8722 251.798 67.3097 252.378 67.5994 253.116H67.7102C68.0057 252.389 68.4858 251.812 69.1506 251.386C69.821 250.955 70.6335 250.739 71.5881 250.739C72.804 250.739 73.7642 251.122 74.4688 251.889C75.1733 252.651 75.5256 253.764 75.5256 255.23V264H74.0085V255.23C74.0085 254.196 73.7443 253.42 73.2159 252.903C72.6875 252.386 71.9915 252.128 71.1278 252.128C70.1278 252.128 69.358 252.435 68.8182 253.048C68.2784 253.662 68.0085 254.44 68.0085 255.384V264H66.4574V255.094C66.4574 254.207 66.2102 253.491 65.7159 252.946C65.2216 252.401 64.5256 252.128 63.6278 252.128C63.0256 252.128 62.483 252.276 62 252.571C61.5227 252.866 61.1449 253.278 60.8665 253.807C60.5938 254.33 60.4574 254.932 60.4574 255.614V264H58.9403ZM79.5419 268.909V250.909H81.0163V253.406H81.1953C81.3771 253.014 81.6271 252.614 81.9453 252.205C82.2635 251.79 82.6839 251.44 83.2067 251.156C83.7351 250.872 84.3999 250.73 85.201 250.73C86.2805 250.73 87.2237 251.014 88.0305 251.582C88.843 252.145 89.4737 252.935 89.9226 253.952C90.3771 254.963 90.6044 256.142 90.6044 257.489C90.6044 258.841 90.3771 260.026 89.9226 261.043C89.4737 262.06 88.843 262.852 88.0305 263.42C87.2237 263.989 86.2862 264.273 85.218 264.273C84.4283 264.273 83.7663 264.131 83.2322 263.847C82.7038 263.562 82.2749 263.213 81.9453 262.798C81.6214 262.378 81.3714 261.969 81.1953 261.571H81.0589V268.909H79.5419ZM81.0419 257.463C81.0419 258.52 81.1982 259.457 81.5107 260.276C81.8288 261.088 82.2834 261.727 82.8743 262.193C83.4709 262.653 84.1925 262.884 85.0391 262.884C85.9084 262.884 86.6413 262.645 87.2379 262.168C87.8402 261.685 88.2976 261.034 88.6101 260.216C88.9283 259.398 89.0874 258.48 89.0874 257.463C89.0874 256.457 88.9311 255.551 88.6186 254.744C88.3118 253.937 87.8572 253.298 87.255 252.827C86.6527 252.349 85.9141 252.111 85.0391 252.111C84.1868 252.111 83.4624 252.341 82.8658 252.801C82.2692 253.256 81.8146 253.886 81.5021 254.693C81.1953 255.494 81.0419 256.418 81.0419 257.463ZM102.251 258.997V250.909H103.768V264H102.251V261.827H102.131C101.825 262.497 101.339 263.057 100.674 263.506C100.009 263.949 99.1967 264.17 98.2365 264.17C97.4013 264.17 96.6598 263.989 96.0121 263.625C95.3643 263.256 94.8558 262.716 94.4865 262.006C94.1172 261.295 93.9325 260.423 93.9325 259.389V250.909H95.4496V259.295C95.4496 260.318 95.7507 261.142 96.353 261.767C96.9553 262.386 97.728 262.696 98.6712 262.696C99.2621 262.696 99.8303 262.554 100.376 262.27C100.921 261.986 101.37 261.571 101.722 261.026C102.075 260.474 102.251 259.798 102.251 258.997ZM116.58 253.781L115.19 254.173C115.054 253.781 114.861 253.426 114.611 253.108C114.361 252.79 114.034 252.537 113.631 252.349C113.233 252.162 112.739 252.068 112.148 252.068C111.261 252.068 110.534 252.278 109.966 252.699C109.398 253.119 109.114 253.662 109.114 254.327C109.114 254.889 109.307 255.347 109.693 255.699C110.085 256.045 110.688 256.321 111.5 256.526L113.477 257.011C114.574 257.278 115.395 257.702 115.94 258.281C116.491 258.861 116.767 259.588 116.767 260.463C116.767 261.202 116.563 261.858 116.153 262.432C115.744 263.006 115.173 263.457 114.44 263.787C113.713 264.111 112.869 264.273 111.909 264.273C110.631 264.273 109.577 263.986 108.747 263.412C107.918 262.832 107.386 261.997 107.153 260.906L108.611 260.548C108.798 261.327 109.165 261.915 109.71 262.312C110.261 262.71 110.986 262.909 111.884 262.909C112.889 262.909 113.693 262.685 114.295 262.236C114.898 261.781 115.199 261.213 115.199 260.531C115.199 260.003 115.023 259.56 114.67 259.202C114.318 258.838 113.784 258.571 113.068 258.401L110.929 257.889C109.793 257.616 108.952 257.185 108.406 256.594C107.861 256.003 107.588 255.27 107.588 254.395C107.588 253.673 107.784 253.04 108.176 252.494C108.568 251.943 109.108 251.511 109.795 251.199C110.483 250.886 111.267 250.73 112.148 250.73C113.347 250.73 114.304 251.003 115.02 251.548C115.741 252.088 116.261 252.832 116.58 253.781ZM23.2322 281.545V299H21.6385V281.545H23.2322ZM32.7138 285.909V287.23H26.4666V285.909H32.7138ZM28.4183 282.773H29.9439V295.582C29.9439 296.128 30.0376 296.557 30.2251 296.869C30.4126 297.176 30.657 297.395 30.9581 297.526C31.2592 297.651 31.5803 297.713 31.9212 297.713C32.12 297.713 32.2905 297.702 32.4325 297.679C32.5746 297.651 32.6996 297.622 32.8075 297.594L33.1314 298.966C32.9837 299.023 32.8018 299.074 32.5859 299.119C32.37 299.17 32.103 299.196 31.7848 299.196C31.228 299.196 30.6911 299.074 30.174 298.83C29.6626 298.585 29.2422 298.222 28.9126 297.739C28.5831 297.256 28.4183 296.656 28.4183 295.94V282.773ZM39.8153 299.298C39.0256 299.298 38.304 299.145 37.6506 298.838C36.9972 298.526 36.4773 298.077 36.0909 297.491C35.7045 296.901 35.5114 296.185 35.5114 295.344C35.5114 294.696 35.6335 294.151 35.8778 293.707C36.1222 293.264 36.4688 292.901 36.9176 292.616C37.3665 292.332 37.8977 292.108 38.5114 291.943C39.125 291.778 39.8011 291.651 40.5398 291.56C41.2727 291.469 41.892 291.389 42.3977 291.321C42.9091 291.253 43.2983 291.145 43.5653 290.997C43.8324 290.849 43.9659 290.611 43.9659 290.281V289.974C43.9659 289.082 43.6989 288.381 43.1648 287.869C42.6364 287.352 41.875 287.094 40.8807 287.094C39.9375 287.094 39.1676 287.301 38.571 287.716C37.9801 288.131 37.5653 288.619 37.3267 289.182L35.8864 288.662C36.1818 287.946 36.5909 287.375 37.1136 286.949C37.6364 286.517 38.2216 286.207 38.8693 286.02C39.517 285.827 40.1733 285.73 40.8381 285.73C41.3381 285.73 41.858 285.795 42.3977 285.926C42.9432 286.057 43.4489 286.284 43.9148 286.608C44.3807 286.926 44.7585 287.372 45.0483 287.946C45.3381 288.514 45.483 289.236 45.483 290.111V299H43.9659V296.929H43.8722C43.6903 297.315 43.4205 297.69 43.0625 298.054C42.7045 298.418 42.2557 298.716 41.7159 298.949C41.1761 299.182 40.5426 299.298 39.8153 299.298ZM40.0199 297.909C40.8267 297.909 41.5256 297.73 42.1165 297.372C42.7074 297.014 43.1619 296.54 43.4801 295.949C43.804 295.352 43.9659 294.696 43.9659 293.98V292.088C43.8523 292.196 43.6619 292.293 43.3949 292.378C43.1335 292.463 42.8295 292.54 42.483 292.608C42.142 292.67 41.8011 292.724 41.4602 292.77C41.1193 292.815 40.8125 292.855 40.5398 292.889C39.8011 292.98 39.1705 293.122 38.6477 293.315C38.125 293.509 37.7244 293.776 37.446 294.116C37.1676 294.452 37.0284 294.884 37.0284 295.412C37.0284 296.207 37.3125 296.824 37.8807 297.261C38.4489 297.693 39.1619 297.909 40.0199 297.909ZM49.5185 303.909V285.909H50.9929V288.406H51.1719C51.3537 288.014 51.6037 287.614 51.9219 287.205C52.2401 286.79 52.6605 286.44 53.1832 286.156C53.7116 285.872 54.3764 285.73 55.1776 285.73C56.2571 285.73 57.2003 286.014 58.0071 286.582C58.8196 287.145 59.4503 287.935 59.8991 288.952C60.3537 289.963 60.581 291.142 60.581 292.489C60.581 293.841 60.3537 295.026 59.8991 296.043C59.4503 297.06 58.8196 297.852 58.0071 298.42C57.2003 298.989 56.2628 299.273 55.1946 299.273C54.4048 299.273 53.7429 299.131 53.2088 298.847C52.6804 298.562 52.2514 298.213 51.9219 297.798C51.598 297.378 51.348 296.969 51.1719 296.571H51.0355V303.909H49.5185ZM51.0185 292.463C51.0185 293.52 51.1747 294.457 51.4872 295.276C51.8054 296.088 52.2599 296.727 52.8509 297.193C53.4474 297.653 54.169 297.884 55.0156 297.884C55.8849 297.884 56.6179 297.645 57.2145 297.168C57.8168 296.685 58.2741 296.034 58.5866 295.216C58.9048 294.398 59.0639 293.48 59.0639 292.463C59.0639 291.457 58.9077 290.551 58.5952 289.744C58.2884 288.937 57.8338 288.298 57.2315 287.827C56.6293 287.349 55.8906 287.111 55.0156 287.111C54.1634 287.111 53.4389 287.341 52.8423 287.801C52.2457 288.256 51.7912 288.886 51.4787 289.693C51.1719 290.494 51.0185 291.418 51.0185 292.463ZM69.2017 299.273C67.9801 299.273 66.9233 298.989 66.0312 298.42C65.1392 297.847 64.4489 297.054 63.9602 296.043C63.4773 295.026 63.2358 293.855 63.2358 292.531C63.2358 291.213 63.4773 290.043 63.9602 289.02C64.4489 287.991 65.1222 287.187 65.9801 286.608C66.8438 286.023 67.8409 285.73 68.9716 285.73C69.6818 285.73 70.3665 285.861 71.0256 286.122C71.6847 286.378 72.2756 286.773 72.7983 287.307C73.3267 287.835 73.7443 288.503 74.0511 289.31C74.358 290.111 74.5114 291.06 74.5114 292.156V292.906H64.2841V291.568H72.9602C72.9602 290.727 72.7898 289.972 72.4489 289.301C72.1136 288.625 71.6449 288.091 71.0426 287.699C70.446 287.307 69.7557 287.111 68.9716 287.111C68.142 287.111 67.4119 287.332 66.7812 287.776C66.1506 288.219 65.6563 288.804 65.2983 289.531C64.946 290.259 64.767 291.054 64.7614 291.918V292.719C64.7614 293.759 64.9403 294.668 65.2983 295.446C65.6619 296.219 66.1761 296.818 66.8409 297.244C67.5057 297.67 68.2926 297.884 69.2017 297.884C69.821 297.884 70.3636 297.787 70.8295 297.594C71.3011 297.401 71.696 297.142 72.0142 296.818C72.3381 296.489 72.5824 296.128 72.7472 295.736L74.1875 296.205C73.9886 296.756 73.6619 297.264 73.2074 297.73C72.7585 298.196 72.196 298.571 71.5199 298.855C70.8494 299.134 70.0767 299.273 69.2017 299.273ZM83.0107 285.909V287.23H76.7635V285.909H83.0107ZM78.7152 282.773H80.2408V295.582C80.2408 296.128 80.3345 296.557 80.522 296.869C80.7095 297.176 80.9538 297.395 81.255 297.526C81.5561 297.651 81.8771 297.713 82.218 297.713C82.4169 297.713 82.5874 297.702 82.7294 297.679C82.8714 297.651 82.9964 297.622 83.1044 297.594L83.4283 298.966C83.2805 299.023 83.0987 299.074 82.8828 299.119C82.6669 299.17 82.3999 299.196 82.0817 299.196C81.5249 299.196 80.9879 299.074 80.4709 298.83C79.9595 298.585 79.5391 298.222 79.2095 297.739C78.88 297.256 78.7152 296.656 78.7152 295.94V282.773ZM86.473 299V285.909H87.9986V299H86.473ZM87.2486 283.659C86.9361 283.659 86.669 283.554 86.4474 283.344C86.2259 283.128 86.1151 282.869 86.1151 282.568C86.1151 282.267 86.2259 282.011 86.4474 281.801C86.669 281.585 86.9361 281.477 87.2486 281.477C87.5611 281.477 87.8281 281.585 88.0497 281.801C88.2713 282.011 88.3821 282.267 88.3821 282.568C88.3821 282.869 88.2713 283.128 88.0497 283.344C87.8281 283.554 87.5611 283.659 87.2486 283.659ZM93.5277 290.818V299H92.0107V285.909H93.4851V287.963H93.6214C93.9283 287.293 94.4055 286.756 95.0533 286.352C95.7067 285.943 96.5135 285.739 97.4737 285.739C98.3544 285.739 99.1271 285.923 99.7919 286.293C100.462 286.656 100.982 287.193 101.352 287.903C101.727 288.614 101.914 289.486 101.914 290.52V299H100.397V290.614C100.397 289.54 100.096 288.69 99.4936 288.065C98.897 287.44 98.0959 287.128 97.0902 287.128C96.4027 287.128 95.7919 287.276 95.2578 287.571C94.7237 287.866 94.3004 288.293 93.9879 288.849C93.6811 289.401 93.5277 290.057 93.5277 290.818ZM110.903 304.182C110.011 304.182 109.23 304.065 108.56 303.832C107.889 303.605 107.324 303.293 106.864 302.895C106.403 302.497 106.045 302.051 105.79 301.557L107.034 300.739C107.222 301.068 107.472 301.392 107.784 301.71C108.102 302.028 108.514 302.293 109.02 302.503C109.531 302.713 110.159 302.818 110.903 302.818C112.063 302.818 112.997 302.528 113.707 301.949C114.423 301.369 114.781 300.469 114.781 299.247V296.298H114.645C114.469 296.696 114.216 297.094 113.886 297.491C113.557 297.884 113.125 298.21 112.591 298.472C112.063 298.733 111.406 298.864 110.622 298.864C109.577 298.864 108.648 298.605 107.835 298.088C107.028 297.571 106.392 296.832 105.926 295.872C105.466 294.906 105.236 293.756 105.236 292.42C105.236 291.097 105.46 289.932 105.909 288.926C106.364 287.92 106.997 287.136 107.81 286.574C108.622 286.011 109.568 285.73 110.648 285.73C111.449 285.73 112.114 285.872 112.642 286.156C113.17 286.435 113.594 286.781 113.912 287.196C114.236 287.611 114.489 288.014 114.67 288.406H114.824V285.909H116.307V299.341C116.307 300.449 116.071 301.361 115.599 302.077C115.128 302.793 114.486 303.321 113.673 303.662C112.861 304.009 111.938 304.182 110.903 304.182ZM110.801 297.474C111.642 297.474 112.361 297.273 112.957 296.869C113.554 296.46 114.011 295.875 114.33 295.114C114.648 294.352 114.807 293.446 114.807 292.395C114.807 291.372 114.651 290.466 114.338 289.676C114.026 288.881 113.571 288.256 112.974 287.801C112.384 287.341 111.659 287.111 110.801 287.111C109.926 287.111 109.188 287.347 108.585 287.818C107.983 288.29 107.528 288.926 107.222 289.727C106.915 290.523 106.761 291.412 106.761 292.395C106.761 293.395 106.918 294.278 107.23 295.045C107.543 295.807 108 296.403 108.602 296.835C109.205 297.261 109.938 297.474 110.801 297.474ZM123.979 299.298C123.19 299.298 122.468 299.145 121.815 298.838C121.161 298.526 120.641 298.077 120.255 297.491C119.869 296.901 119.675 296.185 119.675 295.344C119.675 294.696 119.798 294.151 120.042 293.707C120.286 293.264 120.633 292.901 121.082 292.616C121.531 292.332 122.062 292.108 122.675 291.943C123.289 291.778 123.965 291.651 124.704 291.56C125.437 291.469 126.056 291.389 126.562 291.321C127.073 291.253 127.462 291.145 127.729 290.997C127.996 290.849 128.13 290.611 128.13 290.281V289.974C128.13 289.082 127.863 288.381 127.329 287.869C126.8 287.352 126.039 287.094 125.045 287.094C124.102 287.094 123.332 287.301 122.735 287.716C122.144 288.131 121.729 288.619 121.491 289.182L120.05 288.662C120.346 287.946 120.755 287.375 121.278 286.949C121.8 286.517 122.386 286.207 123.033 286.02C123.681 285.827 124.337 285.73 125.002 285.73C125.502 285.73 126.022 285.795 126.562 285.926C127.107 286.057 127.613 286.284 128.079 286.608C128.545 286.926 128.923 287.372 129.212 287.946C129.502 288.514 129.647 289.236 129.647 290.111V299H128.13V296.929H128.036C127.854 297.315 127.585 297.69 127.227 298.054C126.869 298.418 126.42 298.716 125.88 298.949C125.34 299.182 124.707 299.298 123.979 299.298ZM124.184 297.909C124.991 297.909 125.69 297.73 126.281 297.372C126.871 297.014 127.326 296.54 127.644 295.949C127.968 295.352 128.13 294.696 128.13 293.98V292.088C128.016 292.196 127.826 292.293 127.559 292.378C127.298 292.463 126.994 292.54 126.647 292.608C126.306 292.67 125.965 292.724 125.624 292.77C125.283 292.815 124.977 292.855 124.704 292.889C123.965 292.98 123.335 293.122 122.812 293.315C122.289 293.509 121.888 293.776 121.61 294.116C121.332 294.452 121.192 294.884 121.192 295.412C121.192 296.207 121.477 296.824 122.045 297.261C122.613 297.693 123.326 297.909 124.184 297.909Z" fill="black"/>
<line y1="223.5" x2="150" y2="223.5" stroke="#359936"/>
</svg>
