<svg width="178" height="121" viewBox="0 0 178 121" fill="none" xmlns="http://www.w3.org/2000/svg">
<path d="M89.0002 5.33301C74.2535 5.33301 62.3335 17.253 62.3335 31.9997C62.3335 46.7463 74.2535 58.6663 89.0002 58.6663C103.747 58.6663 115.667 46.7463 115.667 31.9997C115.667 17.253 103.747 5.33301 89.0002 5.33301ZM100.467 43.4663C99.4268 44.5063 97.7468 44.5063 96.7068 43.4663L89.0002 35.7597L81.2935 43.4663C80.2535 44.5063 78.5735 44.5063 77.5335 43.4663C76.4935 42.4263 76.4935 40.7463 77.5335 39.7063L85.2402 31.9997L77.5335 24.293C76.4935 23.253 76.4935 21.573 77.5335 20.533C78.5735 19.493 80.2535 19.493 81.2935 20.533L89.0002 28.2397L96.7068 20.533C97.7468 19.493 99.4268 19.493 100.467 20.533C101.507 21.573 101.507 23.253 100.467 24.293L92.7602 31.9997L100.467 39.7063C101.48 40.7197 101.48 42.4263 100.467 43.4663Z" fill="#C50F1F"/>
<path d="M8.12464 111H1.53374L11.5763 81.9091H19.5025L29.5309 111H22.94L15.6531 88.5568H15.4258L8.12464 111ZM7.71271 99.5653H23.2809V104.366H7.71271V99.5653ZM43.1566 89.1818V93.7273H30.0174V89.1818H43.1566ZM33.0004 83.9545H39.0515V104.295C39.0515 104.854 39.1367 105.29 39.3072 105.602C39.4776 105.905 39.7144 106.118 40.0174 106.241C40.3299 106.365 40.6897 106.426 41.0969 106.426C41.381 106.426 41.6651 106.402 41.9492 106.355C42.2333 106.298 42.4511 106.256 42.6026 106.227L43.5543 110.73C43.2513 110.825 42.8252 110.934 42.2759 111.057C41.7267 111.189 41.0591 111.27 40.2731 111.298C38.8147 111.355 37.5363 111.161 36.4379 110.716C35.3488 110.271 34.5013 109.58 33.8952 108.642C33.2892 107.705 32.9909 106.521 33.0004 105.091V83.9545ZM56.8072 111.426C54.5629 111.426 52.631 110.972 51.0117 110.062C49.4019 109.144 48.1613 107.847 47.2901 106.17C46.4189 104.485 45.9833 102.491 45.9833 100.19C45.9833 97.946 46.4189 95.9763 47.2901 94.2812C48.1613 92.5862 49.3877 91.2652 50.9691 90.3182C52.56 89.3712 54.4255 88.8977 56.5657 88.8977C58.0051 88.8977 59.3451 89.1297 60.5856 89.5938C61.8356 90.0483 62.9246 90.7348 63.8526 91.6534C64.7901 92.572 65.5193 93.7273 66.0401 95.1193C66.561 96.5019 66.8214 98.1212 66.8214 99.9773V101.639H48.3981V97.8892H61.1254C61.1254 97.018 60.936 96.2462 60.5572 95.5739C60.1784 94.9015 59.6528 94.3759 58.9805 93.9972C58.3176 93.6089 57.5458 93.4148 56.6651 93.4148C55.7466 93.4148 54.9322 93.6278 54.2219 94.054C53.5212 94.4706 52.9719 95.0341 52.5742 95.7443C52.1765 96.4451 51.9729 97.2263 51.9634 98.0881V101.653C51.9634 102.733 52.1623 103.666 52.56 104.452C52.9672 105.238 53.5401 105.844 54.2788 106.27C55.0174 106.696 55.8933 106.909 56.9066 106.909C57.579 106.909 58.1945 106.814 58.7532 106.625C59.3119 106.436 59.7901 106.152 60.1879 105.773C60.5856 105.394 60.8886 104.93 61.0969 104.381L66.6935 104.75C66.4094 106.095 65.8271 107.269 64.9464 108.273C64.0752 109.267 62.9483 110.044 61.5657 110.602C60.1926 111.152 58.6064 111.426 56.8072 111.426ZM76.8214 98.3864V111H70.7702V89.1818H76.5373V93.0312H76.793C77.2759 91.7623 78.0856 90.7585 79.2219 90.0199C80.3583 89.2718 81.7362 88.8977 83.3555 88.8977C84.8706 88.8977 86.1916 89.2292 87.3185 89.892C88.4454 90.5549 89.3214 91.5019 89.9464 92.733C90.5714 93.9545 90.8839 95.4129 90.8839 97.108V111H84.8327V98.1875C84.8422 96.8523 84.5013 95.8106 83.81 95.0625C83.1187 94.3049 82.167 93.9261 80.9549 93.9261C80.1405 93.9261 79.4208 94.1013 78.7958 94.4517C78.1803 94.8021 77.6973 95.3134 77.3469 95.9858C77.006 96.6487 76.8308 97.4489 76.8214 98.3864ZM105.511 111.426C103.276 111.426 101.354 110.953 99.744 110.006C98.1436 109.049 96.9125 107.723 96.0508 106.028C95.1985 104.333 94.7724 102.383 94.7724 100.176C94.7724 97.9413 95.2032 95.9811 96.065 94.2955C96.9362 92.6004 98.172 91.2794 99.7724 90.3324C101.373 89.3759 103.276 88.8977 105.483 88.8977C107.386 88.8977 109.053 89.2434 110.483 89.9347C111.913 90.6259 113.044 91.5966 113.877 92.8466C114.711 94.0966 115.17 95.5644 115.255 97.25H109.545C109.384 96.161 108.958 95.285 108.267 94.6222C107.585 93.9498 106.69 93.6136 105.582 93.6136C104.645 93.6136 103.825 93.8693 103.125 94.3807C102.433 94.8826 101.894 95.6165 101.505 96.5824C101.117 97.5483 100.923 98.7178 100.923 100.091C100.923 101.483 101.112 102.667 101.491 103.642C101.879 104.617 102.424 105.361 103.125 105.872C103.825 106.384 104.645 106.639 105.582 106.639C106.273 106.639 106.894 106.497 107.443 106.213C108.002 105.929 108.461 105.517 108.821 104.977C109.19 104.428 109.431 103.77 109.545 103.003H115.255C115.161 104.67 114.706 106.137 113.892 107.406C113.087 108.666 111.974 109.651 110.554 110.361C109.133 111.071 107.452 111.426 105.511 111.426ZM104.091 110.886H106.875L106.647 112.122C107.623 112.274 108.418 112.638 109.034 113.216C109.659 113.794 109.976 114.58 109.985 115.574C109.995 116.985 109.342 118.107 108.025 118.94C106.709 119.783 104.862 120.205 102.485 120.205L102.429 117.506C103.622 117.506 104.555 117.359 105.227 117.065C105.909 116.781 106.264 116.336 106.292 115.73C106.311 115.152 106.089 114.712 105.625 114.409C105.161 114.106 104.436 113.893 103.451 113.77L104.091 110.886ZM125.351 111.412C123.959 111.412 122.719 111.17 121.63 110.688C120.541 110.195 119.679 109.471 119.044 108.514C118.419 107.548 118.107 106.346 118.107 104.906C118.107 103.694 118.329 102.676 118.775 101.852C119.22 101.028 119.826 100.366 120.593 99.8636C121.36 99.3617 122.231 98.983 123.206 98.7273C124.191 98.4716 125.223 98.2917 126.303 98.1875C127.572 98.0549 128.595 97.9318 129.371 97.8182C130.148 97.6951 130.711 97.5152 131.061 97.2784C131.412 97.0417 131.587 96.6913 131.587 96.2273V96.142C131.587 95.2424 131.303 94.5464 130.735 94.054C130.176 93.5616 129.381 93.3153 128.348 93.3153C127.259 93.3153 126.393 93.5568 125.749 94.0398C125.105 94.5133 124.679 95.1098 124.471 95.8295L118.874 95.375C119.158 94.0492 119.717 92.9034 120.55 91.9375C121.383 90.9621 122.458 90.214 123.775 89.6932C125.1 89.1629 126.634 88.8977 128.377 88.8977C129.589 88.8977 130.749 89.0398 131.857 89.3239C132.974 89.608 133.964 90.0483 134.826 90.6449C135.697 91.2415 136.383 92.0085 136.885 92.946C137.387 93.8741 137.638 94.9867 137.638 96.2841V111H131.9V107.974H131.729C131.379 108.656 130.91 109.258 130.323 109.778C129.736 110.29 129.03 110.692 128.206 110.986C127.382 111.27 126.431 111.412 125.351 111.412ZM127.084 107.236C127.974 107.236 128.76 107.061 129.442 106.71C130.124 106.35 130.659 105.867 131.047 105.261C131.435 104.655 131.63 103.969 131.63 103.202V100.886C131.44 101.009 131.18 101.123 130.848 101.227C130.526 101.322 130.162 101.412 129.755 101.497C129.347 101.573 128.94 101.644 128.533 101.71C128.126 101.767 127.757 101.819 127.425 101.866C126.715 101.971 126.095 102.136 125.564 102.364C125.034 102.591 124.622 102.899 124.328 103.287C124.035 103.666 123.888 104.139 123.888 104.707C123.888 105.531 124.186 106.161 124.783 106.597C125.389 107.023 126.156 107.236 127.084 107.236ZM124.542 86.4972L121.175 86.4545C121.175 84.6458 121.62 83.2585 122.51 82.2926C123.41 81.3267 124.504 80.839 125.792 80.8295C126.454 80.8295 127.023 80.9384 127.496 81.1562C127.979 81.3646 128.41 81.6108 128.789 81.8949C129.177 82.179 129.546 82.4299 129.897 82.6477C130.247 82.8561 130.626 82.9602 131.033 82.9602C131.582 82.9508 131.999 82.7472 132.283 82.3494C132.577 81.9422 132.723 81.4119 132.723 80.7585L136.033 80.858C136.014 82.6477 135.56 84.0303 134.669 85.0057C133.779 85.9716 132.695 86.4593 131.417 86.4688C130.706 86.4688 130.11 86.3646 129.627 86.1562C129.153 85.9384 128.737 85.6922 128.377 85.4176C128.017 85.1335 127.667 84.8826 127.326 84.6648C126.985 84.447 126.601 84.3381 126.175 84.3381C125.683 84.3381 125.285 84.5322 124.982 84.9205C124.688 85.3087 124.542 85.8343 124.542 86.4972ZM152.191 111.426C149.984 111.426 148.076 110.957 146.466 110.02C144.866 109.073 143.63 107.757 142.759 106.071C141.888 104.376 141.452 102.411 141.452 100.176C141.452 97.9223 141.888 95.9527 142.759 94.267C143.63 92.572 144.866 91.2557 146.466 90.3182C148.076 89.3712 149.984 88.8977 152.191 88.8977C154.397 88.8977 156.301 89.3712 157.901 90.3182C159.511 91.2557 160.751 92.572 161.623 94.267C162.494 95.9527 162.929 97.9223 162.929 100.176C162.929 102.411 162.494 104.376 161.623 106.071C160.751 107.757 159.511 109.073 157.901 110.02C156.301 110.957 154.397 111.426 152.191 111.426ZM152.219 106.739C153.223 106.739 154.061 106.455 154.733 105.886C155.406 105.309 155.912 104.523 156.253 103.528C156.604 102.534 156.779 101.402 156.779 100.134C156.779 98.8646 156.604 97.733 156.253 96.7386C155.912 95.7443 155.406 94.9583 154.733 94.3807C154.061 93.803 153.223 93.5142 152.219 93.5142C151.206 93.5142 150.354 93.803 149.662 94.3807C148.98 94.9583 148.464 95.7443 148.114 96.7386C147.773 97.733 147.603 98.8646 147.603 100.134C147.603 101.402 147.773 102.534 148.114 103.528C148.464 104.523 148.98 105.309 149.662 105.886C150.354 106.455 151.206 106.739 152.219 106.739ZM174.094 81.9091L173.54 102.278H168.341L167.773 81.9091H174.094ZM170.941 111.369C170.003 111.369 169.198 111.038 168.526 110.375C167.854 109.703 167.522 108.898 167.532 107.96C167.522 107.032 167.854 106.237 168.526 105.574C169.198 104.911 170.003 104.58 170.941 104.58C171.84 104.58 172.631 104.911 173.313 105.574C173.995 106.237 174.34 107.032 174.35 107.96C174.34 108.585 174.175 109.158 173.853 109.679C173.54 110.19 173.128 110.602 172.617 110.915C172.105 111.218 171.547 111.369 170.941 111.369Z" fill="#C50F1F"/>
</svg>
