<svg width="133" height="120" viewBox="0 0 133 120" fill="none" xmlns="http://www.w3.org/2000/svg">
<path d="M66.5 5.33301C51.78 5.33301 39.8334 17.2797 39.8334 31.9997C39.8334 46.7197 51.78 58.6663 66.5 58.6663C81.22 58.6663 93.1667 46.7197 93.1667 31.9997C93.1667 17.2797 81.22 5.33301 66.5 5.33301ZM59.2734 43.4397L49.7 33.8663C48.66 32.8263 48.66 31.1463 49.7 30.1063C50.74 29.0663 52.42 29.0663 53.46 30.1063L61.1667 37.7863L79.5134 19.4397C80.5534 18.3997 82.2334 18.3997 83.2734 19.4397C84.3134 20.4797 84.3134 22.1597 83.2734 23.1997L63.0334 43.4397C62.02 44.4797 60.3134 44.4797 59.2734 43.4397Z" fill="#019544"/>
<path d="M29.902 96.4545C29.902 99.6269 29.3007 102.326 28.098 104.551C26.9048 106.777 25.276 108.476 23.2116 109.651C21.1567 110.815 18.8461 111.398 16.2798 111.398C13.6946 111.398 11.3745 110.811 9.3196 109.636C7.26468 108.462 5.64063 106.762 4.44744 104.537C3.25426 102.312 2.65767 99.6174 2.65767 96.4545C2.65767 93.2822 3.25426 90.5833 4.44744 88.358C5.64063 86.1326 7.26468 84.4375 9.3196 83.2727C11.3745 82.0985 13.6946 81.5114 16.2798 81.5114C18.8461 81.5114 21.1567 82.0985 23.2116 83.2727C25.276 84.4375 26.9048 86.1326 28.098 88.358C29.3007 90.5833 29.902 93.2822 29.902 96.4545ZM23.6662 96.4545C23.6662 94.3996 23.3584 92.6667 22.7429 91.2557C22.1368 89.8447 21.2798 88.7746 20.1719 88.0455C19.0639 87.3163 17.7666 86.9517 16.2798 86.9517C14.7931 86.9517 13.4957 87.3163 12.3878 88.0455C11.2798 88.7746 10.4181 89.8447 9.80256 91.2557C9.1965 92.6667 8.89347 94.3996 8.89347 96.4545C8.89347 98.5095 9.1965 100.242 9.80256 101.653C10.4181 103.064 11.2798 104.134 12.3878 104.864C13.4957 105.593 14.7931 105.957 16.2798 105.957C17.7666 105.957 19.0639 105.593 20.1719 104.864C21.2798 104.134 22.1368 103.064 22.7429 101.653C23.3584 100.242 23.6662 98.5095 23.6662 96.4545ZM14.1065 79.0966L17.1179 72.6335H22.7145L18.3821 79.0966H14.1065ZM45.9496 89.1818V93.7273H32.8104V89.1818H45.9496ZM35.7933 83.9545H41.8445V104.295C41.8445 104.854 41.9297 105.29 42.1001 105.602C42.2706 105.905 42.5073 106.118 42.8104 106.241C43.1229 106.365 43.4827 106.426 43.8899 106.426C44.174 106.426 44.4581 106.402 44.7422 106.355C45.0263 106.298 45.2441 106.256 45.3956 106.227L46.3473 110.73C46.0443 110.825 45.6181 110.934 45.0689 111.057C44.5196 111.189 43.852 111.27 43.0661 111.298C41.6077 111.355 40.3293 111.161 39.2308 110.716C38.1418 110.271 37.2943 109.58 36.6882 108.642C36.0821 107.705 35.7839 106.521 35.7933 105.091V83.9545ZM49.8913 111V89.1818H55.9425V111H49.8913ZM52.9311 86.3693C52.0315 86.3693 51.2597 86.071 50.6158 85.4744C49.9813 84.8684 49.6641 84.1439 49.6641 83.3011C49.6641 82.4678 49.9813 81.7528 50.6158 81.1562C51.2597 80.5502 52.0315 80.2472 52.9311 80.2472C53.8307 80.2472 54.5978 80.5502 55.2322 81.1562C55.8762 81.7528 56.1982 82.4678 56.1982 83.3011C56.1982 84.1439 55.8762 84.8684 55.2322 85.4744C54.5978 86.071 53.8307 86.3693 52.9311 86.3693ZM60.7898 111V89.1818H66.5568V93.0312H66.8125C67.267 91.7528 68.0246 90.7443 69.0852 90.0057C70.1458 89.267 71.4148 88.8977 72.892 88.8977C74.3883 88.8977 75.6619 89.2718 76.7131 90.0199C77.7642 90.7585 78.465 91.7623 78.8153 93.0312H79.0426C79.4877 91.7812 80.2926 90.7822 81.4574 90.0341C82.6316 89.2765 84.0189 88.8977 85.6193 88.8977C87.6553 88.8977 89.3078 89.5464 90.5767 90.8438C91.8551 92.1316 92.4943 93.9593 92.4943 96.3267V111H86.4574V97.5199C86.4574 96.3078 86.1354 95.3987 85.4915 94.7926C84.8475 94.1866 84.0426 93.8835 83.0767 93.8835C81.9782 93.8835 81.1212 94.2339 80.5057 94.9347C79.8902 95.6259 79.5824 96.5398 79.5824 97.6761V111H73.7159V97.392C73.7159 96.322 73.4081 95.4697 72.7926 94.8352C72.1866 94.2008 71.3864 93.8835 70.392 93.8835C69.7197 93.8835 69.1136 94.054 68.5739 94.3949C68.0436 94.7263 67.6222 95.1951 67.3097 95.8011C66.9972 96.3977 66.8409 97.0985 66.8409 97.9034V111H60.7898ZM107.132 111.426C104.926 111.426 103.018 110.957 101.408 110.02C99.8073 109.073 98.5715 107.757 97.7003 106.071C96.8291 104.376 96.3935 102.411 96.3935 100.176C96.3935 97.9223 96.8291 95.9527 97.7003 94.267C98.5715 92.572 99.8073 91.2557 101.408 90.3182C103.018 89.3712 104.926 88.8977 107.132 88.8977C109.339 88.8977 111.242 89.3712 112.842 90.3182C114.452 91.2557 115.693 92.572 116.564 94.267C117.435 95.9527 117.871 97.9223 117.871 100.176C117.871 102.411 117.435 104.376 116.564 106.071C115.693 107.757 114.452 109.073 112.842 110.02C111.242 110.957 109.339 111.426 107.132 111.426ZM107.161 106.739C108.164 106.739 109.002 106.455 109.675 105.886C110.347 105.309 110.854 104.523 111.195 103.528C111.545 102.534 111.72 101.402 111.72 100.134C111.72 98.8646 111.545 97.733 111.195 96.7386C110.854 95.7443 110.347 94.9583 109.675 94.3807C109.002 93.803 108.164 93.5142 107.161 93.5142C106.147 93.5142 105.295 93.803 104.604 94.3807C103.922 94.9583 103.406 95.7443 103.055 96.7386C102.714 97.733 102.544 98.8646 102.544 100.134C102.544 101.402 102.714 102.534 103.055 103.528C103.406 104.523 103.922 105.309 104.604 105.886C105.295 106.455 106.147 106.739 107.161 106.739ZM129.036 81.9091L128.482 102.278H123.283L122.714 81.9091H129.036ZM125.882 111.369C124.945 111.369 124.14 111.038 123.467 110.375C122.795 109.703 122.464 108.898 122.473 107.96C122.464 107.032 122.795 106.237 123.467 105.574C124.14 104.911 124.945 104.58 125.882 104.58C126.782 104.58 127.572 104.911 128.254 105.574C128.936 106.237 129.282 107.032 129.291 107.96C129.282 108.585 129.116 109.158 128.794 109.679C128.482 110.19 128.07 110.602 127.558 110.915C127.047 111.218 126.488 111.369 125.882 111.369Z" fill="#019544"/>
</svg>
