<svg xmlns="http://www.w3.org/2000/svg" width="25" height="24" viewBox="0 0 25 24" fill="none">
<path d="M8.87018 17.8573C9.36186 16.205 11.7046 15 12.7046 15C13.7046 15 16.0473 16.205 16.539 17.8573M8.87018 17.8573C9.97156 18.5798 11.289 19 12.7046 19C14.1202 19 15.4376 18.5798 16.539 17.8573M8.87018 17.8573C6.96367 16.6067 5.70459 14.4504 5.70459 12C5.70459 8.13401 8.8386 5 12.7046 5C14.4181 5 15.9878 5.61568 17.2046 6.63789M16.539 17.8573C18.4455 16.6067 19.7046 14.4504 19.7046 12C19.7046 10.9264 19.4629 9.90926 19.031 9M14.7046 10C14.7046 11.3807 13.8092 13 12.7046 13C11.6 13 10.7046 11.3807 10.7046 10C10.7046 8.61929 11.6 8 12.7046 8C13.8092 8 14.7046 8.61929 14.7046 10Z" stroke="#022971" stroke-width="1.5" stroke-linecap="round"/>
</svg>
