<svg width="65" height="65" viewBox="0 0 65 65" fill="none" xmlns="http://www.w3.org/2000/svg">
<path d="M18.958 59.583H46.0413" stroke="#0443BD" stroke-width="2" stroke-linecap="round" stroke-linejoin="round"/>
<path d="M5.4165 46.0415V10.8332C5.4165 9.39658 5.98719 8.01883 7.00301 7.00301C8.01883 5.98719 9.39658 5.4165 10.8332 5.4165H54.1665C55.6031 5.4165 56.9808 5.98719 57.9967 7.00301C59.0125 8.01883 59.5832 9.39658 59.5832 10.8332V46.0415C59.5832 47.4781 59.0125 48.8558 57.9967 49.8717C56.9808 50.8875 55.6031 51.4582 54.1665 51.4582H10.8332C9.39658 51.4582 8.01883 50.8875 7.00301 49.8717C5.98719 48.8558 5.4165 47.4781 5.4165 46.0415Z" stroke="#0443BD" stroke-width="2"/>
<path d="M24.375 28.4372L29.7917 33.8538L40.625 23.0205" stroke="#0443BD" stroke-width="2" stroke-linecap="round" stroke-linejoin="round"/>
</svg>
