<svg width="65" height="64" viewBox="0 0 65 64" fill="none" xmlns="http://www.w3.org/2000/svg">
<path d="M59.1668 32.0002C59.1668 17.2722 47.2282 5.3335 32.5002 5.3335C17.7722 5.3335 5.8335 17.2722 5.8335 32.0002C5.8335 46.7282 17.7722 58.6668 32.5002 58.6668" stroke="#0443BD" stroke-width="2" stroke-linecap="round" stroke-linejoin="round"/>
<path d="M35.167 5.4668C35.167 5.4668 43.167 16.0001 43.167 32.0001M29.8337 58.5335C29.8337 58.5335 21.8337 48.0001 21.8337 32.0001C21.8337 16.0001 29.8337 5.4668 29.8337 5.4668M7.51367 41.3335H32.5003M7.51367 22.6668H57.487" stroke="#0443BD" stroke-width="2" stroke-linecap="round" stroke-linejoin="round"/>
<path d="M58.844 47.7787C60.1614 48.5894 60.0787 50.56 58.724 50.7147L51.8787 51.4907L48.8094 57.656C48.2014 58.88 46.3214 58.28 46.0094 56.7654L42.6627 40.456C42.3987 39.176 43.5507 38.3707 44.6627 39.056L58.844 47.7787Z" stroke="#0443BD" stroke-width="2"/>
</svg>
