<svg width="48" height="48" viewBox="0 0 48 48" fill="none" xmlns="http://www.w3.org/2000/svg">
<path fill-rule="evenodd" clip-rule="evenodd" d="M34.95 4.5H13.05C9.48775 4.5 7.70663 4.5 6.45802 5.40717C6.05477 5.70015 5.70015 6.05477 5.40717 6.45802C4.5 7.70663 4.5 9.48775 4.5 13.05V34.95C4.5 38.5122 4.5 40.2934 5.40717 41.542C5.70015 41.9452 6.05477 42.2999 6.45802 42.5928C7.70663 43.5 9.48775 43.5 13.05 43.5H34.95C38.5122 43.5 40.2934 43.5 41.542 42.5928C41.9452 42.2999 42.2999 41.9452 42.5928 41.542C43.5 40.2934 43.5 38.5122 43.5 34.95V13.05C43.5 9.48775 43.5 7.70663 42.5928 6.45802C42.2999 6.05477 41.9452 5.70015 41.542 5.40717C40.2934 4.5 38.5122 4.5 34.95 4.5ZM32 24C32 28.4183 28.4183 32 24 32C19.5817 32 16 28.4183 16 24C16 19.5817 19.5817 16 24 16C28.4183 16 32 19.5817 32 24ZM35 15C36.1046 15 37 14.1046 37 13C37 11.8954 36.1046 11 35 11C33.8954 11 33 11.8954 33 13C33 14.1046 33.8954 15 35 15Z" fill="#B1C5EB"/>
</svg>
