<svg width="48" height="48" viewBox="0 0 48 48" fill="none" xmlns="http://www.w3.org/2000/svg">
<path fill-rule="evenodd" clip-rule="evenodd" d="M4.5 13.05C4.5 9.48775 4.5 7.70663 5.40717 6.45802C5.70015 6.05477 6.05477 5.70015 6.45802 5.40717C7.70663 4.5 9.48775 4.5 13.05 4.5H34.95C38.5122 4.5 40.2934 4.5 41.542 5.40717C41.9452 5.70015 42.2999 6.05477 42.5928 6.45802C43.5 7.70663 43.5 9.48775 43.5 13.05V34.95C43.5 38.5122 43.5 40.2934 42.5928 41.542C42.2999 41.9452 41.9452 42.2999 41.542 42.5928C40.2934 43.5 38.5122 43.5 34.95 43.5H13.05C9.48775 43.5 7.70663 43.5 6.45802 42.5928C6.05477 42.2999 5.70015 41.9452 5.40717 41.542C4.5 40.2934 4.5 38.5122 4.5 34.95V13.05ZM30.6531 21.8469C30.3606 21.7581 29.9762 21.75 28.875 21.75C27.076 21.75 26.3427 21.7581 25.7663 21.933C24.408 22.345 23.345 23.408 22.933 24.7663C22.7581 25.3427 22.75 26.076 22.75 27.875V33C22.75 33.4142 22.4142 33.75 22 33.75C21.5858 33.75 21.25 33.4142 21.25 33V27.875L21.25 27.7233L21.25 27.4361V21C21.25 20.5858 21.5858 20.25 22 20.25C22.4142 20.25 22.75 20.5858 22.75 21V22.127C23.4377 21.3724 24.3244 20.8029 25.3309 20.4976C26.1484 20.2496 27.124 20.2497 28.7233 20.25L28.875 20.25L29.0053 20.25H29.0053H29.0053C29.9258 20.2496 30.5543 20.2494 31.0886 20.4115C32.2871 20.775 33.225 21.7129 33.5885 22.9114C33.7506 23.4457 33.7504 24.0742 33.75 24.9947L33.75 25.125V33C33.75 33.4142 33.4142 33.75 33 33.75C32.5858 33.75 32.25 33.4142 32.25 33V25.125C32.25 24.0238 32.2419 23.6394 32.1531 23.3469C31.935 22.6278 31.3722 22.065 30.6531 21.8469ZM15 20.25C15.4142 20.25 15.75 20.5858 15.75 21V33C15.75 33.4142 15.4142 33.75 15 33.75C14.5858 33.75 14.25 33.4142 14.25 33V21C14.25 20.5858 14.5858 20.25 15 20.25ZM15 17C16.1046 17 17 16.1046 17 15C17 13.8954 16.1046 13 15 13C13.8954 13 13 13.8954 13 15C13 16.1046 13.8954 17 15 17Z" fill="#B1C5EB"/>
</svg>
