<svg width="65" height="64" viewBox="0 0 65 64" fill="none" xmlns="http://www.w3.org/2000/svg">
<g clip-path="url(#clip0_2965_469)">
<path d="M24.1745 50.9329C16.5452 50.2662 9.81451 47.4342 5.42785 43.0555C2.93185 40.5595 1.41718 37.8502 0.734513 34.6582C0.419846 33.2075 0.422513 30.7969 0.734513 29.3329C1.68651 24.8955 4.55585 21.0129 9.07051 18.0529C19.3692 11.2982 35.1452 11.3329 45.3479 18.1329C46.7025 19.0342 47.5772 19.7515 48.8038 20.9595C50.3505 22.4875 51.4385 24.0049 52.5852 26.2395C52.6278 26.3195 52.8385 26.4262 53.0545 26.4689C53.7745 26.6182 54.7425 27.1835 55.5185 27.9089C56.1212 28.4689 56.5878 29.0822 57.7372 30.8235C58.8972 32.5782 64.1479 40.6822 64.4678 41.2129C64.5905 41.4209 64.3452 41.7515 64.0678 41.7515C63.8732 41.7515 63.7318 41.6182 63.4438 41.1649L60.4678 36.5462C55.4012 28.7009 55.1265 28.3382 53.7158 27.6315L52.9745 27.2582H50.7958C48.6199 27.2582 48.6172 27.2609 48.5639 27.4902C48.2759 28.7435 48.2225 29.0529 48.2865 29.1115C48.3265 29.1489 49.5612 29.8529 51.0332 30.6742L53.7052 32.1729L53.5398 32.5222C53.4465 32.7142 53.3425 32.8742 53.3052 32.8742C53.2678 32.8742 51.0172 31.6262 48.3052 30.1035C45.5905 28.5835 43.2118 27.2929 43.0198 27.2395C42.2465 27.0262 41.0625 27.8795 41.0625 28.6502C41.0625 29.4289 41.2945 29.6582 46.0598 33.5595C49.0332 35.9969 50.7345 37.4582 50.9932 37.8049C51.4678 38.4342 51.9452 39.3622 52.3878 40.5035C53.1612 42.5142 54.4225 43.6342 56.4892 44.1515L57.1692 44.3222L57.1132 44.6955C57.0974 44.8386 57.0642 44.9791 57.0145 45.1142C56.9265 45.2129 55.5559 44.7755 54.7639 44.3942C53.5238 43.7995 52.6705 42.9515 51.8332 41.4769C51.4686 41.5865 51.1083 41.7102 50.7532 41.8475C49.7105 42.2262 49.6599 42.2582 48.6732 43.2209C44.4705 47.3222 38.4438 49.9435 31.1638 50.8342C29.9825 50.9809 25.4305 51.0449 24.1745 50.9329ZM31.4198 49.6715C34.7585 49.2289 37.3478 48.5675 40.0598 47.4582C42.9052 46.2929 45.5878 44.6182 47.4652 42.8369L48.2038 42.1329L46.3425 41.2449C44.3532 40.2929 44.1558 40.1355 43.9025 39.2849C43.7425 38.7515 43.9239 38.1782 44.4305 37.6289L44.8278 37.1995L43.9638 36.5435C43.2812 36.0235 43.0678 35.7969 42.9345 35.4502C42.8298 35.1805 42.7942 34.889 42.831 34.6021C42.8678 34.3152 42.9758 34.042 43.1452 33.8075L43.4065 33.4395L40.6785 32.9595C39.6377 32.7857 38.601 32.5884 37.5692 32.3675C37.3425 32.2795 37.1398 32.1392 36.9776 31.958C36.8154 31.7768 36.6983 31.5599 36.6358 31.3249C36.5772 31.0795 37.9158 24.5515 38.2145 23.6182C38.3188 23.378 38.4747 23.1637 38.671 22.9905C38.8673 22.8172 39.0993 22.6892 39.3505 22.6155C39.8012 22.5329 47.8438 23.9462 48.2438 24.1809C48.8785 24.5489 49.0785 25.1462 48.8785 26.0609L48.7932 26.4449H49.2385C49.4839 26.4449 50.0652 26.4129 50.5265 26.3782L51.3692 26.3115L50.9505 25.5382C49.6865 23.1862 47.4039 20.8235 44.5825 18.9462C43.2652 18.0715 40.4572 16.6875 38.7665 16.0822C36.14 15.172 33.417 14.5689 30.6518 14.2849C29.1185 14.1249 25.0998 14.1249 23.6118 14.2875C20.0412 14.6769 16.8012 15.4849 13.9665 16.6929C7.40651 19.4902 2.99318 24.1222 1.86518 29.4049C1.57185 30.7835 1.54518 33.1995 1.81718 34.4555C2.41451 37.2289 3.71851 39.6315 5.84118 41.8689C10.1612 46.4209 16.7665 49.2182 24.6838 49.8529C25.7425 49.9355 30.3398 49.8129 31.4198 49.6715ZM29.9718 44.7009C29.5638 44.5835 29.1505 44.0955 29.0652 43.6342C29.0065 43.3302 29.0758 43.1222 29.5078 42.2849C31.2572 38.8982 32.0172 35.7862 32.0172 32.0049C32.0172 28.3515 31.3452 25.5115 29.6732 22.1035C29.3132 21.3729 29.0198 20.6929 29.0198 20.5969C29.0198 20.2342 29.3238 19.7089 29.6518 19.5035C30.1025 19.2182 30.8572 19.2715 31.2198 19.6102C31.3585 19.7435 31.7185 20.3329 32.0198 20.9275C33.2172 23.2742 34.0358 25.8529 34.4412 28.5355C34.6918 30.1969 34.7425 33.3435 34.5425 34.8635C34.2064 37.5571 33.4317 40.1775 32.2492 42.6209C31.5292 44.1009 31.0812 44.7115 30.7025 44.7115C30.6114 44.7138 30.521 44.7272 30.4332 44.7515C30.2776 44.767 30.1204 44.7497 29.9718 44.7009ZM25.1025 42.1542C24.4785 41.9702 24.0252 41.2022 24.2065 40.6262C24.2518 40.4875 24.5452 39.8449 24.8625 39.1995C26.1839 36.5595 26.7462 33.6043 26.4865 30.6635C26.2625 28.3009 25.8385 26.8102 24.7718 24.6289C24.0545 23.1649 24.0225 22.9382 24.4385 22.3515C24.8332 21.7915 25.8225 21.6982 26.3398 22.1755C26.6998 22.5062 27.8198 24.8422 28.2492 26.1649C29.6777 30.5502 29.4577 35.3061 27.6305 39.5409C26.6918 41.7435 26.0332 42.4235 25.1025 42.1542ZM20.0838 39.5702C19.8841 39.4733 19.708 39.3337 19.5679 39.1614C19.4279 38.9891 19.3273 38.7882 19.2732 38.5729C19.2172 38.3222 19.3105 38.0449 19.7718 37.1142C21.4572 33.7009 21.4758 30.4102 19.8252 27.0742C19.1025 25.6075 19.0865 25.3169 19.6998 24.7382C20.0012 24.4529 20.1292 24.4022 20.5532 24.4022C21.2652 24.4022 21.6358 24.7622 22.2705 26.0689C23.2492 28.0795 23.6518 29.8235 23.6465 32.0582C23.6465 34.3515 23.2705 35.9302 22.2252 38.0502C21.6252 39.2635 21.3292 39.5835 20.7318 39.6662C20.5113 39.6859 20.2892 39.653 20.0838 39.5702ZM15.3985 37.1649C15.0362 36.9731 14.7627 36.648 14.6358 36.2582C14.5212 35.8529 14.6145 35.5302 15.0758 34.7729C15.6678 33.7995 15.8065 33.2795 15.8065 32.0049C15.8065 30.7329 15.6678 30.2102 15.0758 29.2369C14.9004 28.9585 14.7504 28.6649 14.6278 28.3595C14.4385 27.7195 14.9718 26.9329 15.6892 26.7969C16.2972 26.6822 16.7158 26.9569 17.2758 27.8289C18.0692 29.0885 18.4902 30.5468 18.4902 32.0355C18.4902 33.5242 18.0692 34.9825 17.2758 36.2422C16.7025 37.1275 16.0652 37.4422 15.3985 37.1649ZM50.3052 41.0929C50.8465 40.8982 51.3158 40.7169 51.3452 40.6849C51.3772 40.6555 51.2732 40.3089 51.1132 39.9142C50.7878 39.1089 50.8412 39.1275 49.6892 39.3489C48.4412 39.5889 47.7185 39.3755 46.3558 38.3729C45.9825 38.0982 45.6012 37.8742 45.5025 37.8742C45.4065 37.8742 45.1958 38.0155 45.0305 38.1915C44.6838 38.5649 44.6305 39.1515 44.9132 39.4982C45.1612 39.7995 48.5852 41.4289 48.9932 41.4369C49.1718 41.4422 49.7639 41.2875 50.3052 41.0929ZM49.7665 38.4715C50.2732 38.3702 50.3292 38.3355 50.2412 38.1729C50.1452 37.9915 45.4092 34.0609 44.9985 33.8209C44.6599 33.6235 44.3852 33.6689 44.1052 33.9702C43.2812 34.8502 43.3772 35.0369 45.5079 36.6715C48.0785 38.6395 48.3505 38.7569 49.7665 38.4715ZM43.4092 32.5222C43.4092 32.4955 42.8732 32.0342 42.2145 31.4955C40.5932 30.1595 40.2465 29.6609 40.2465 28.6742C40.2465 27.8475 40.7958 27.0529 41.6812 26.5942C42.2043 26.3594 42.7909 26.3059 43.3479 26.4422C43.6625 26.5435 45.0759 27.3089 47.0359 28.4369L47.4492 28.6742L47.7905 27.0582C48.1372 25.4049 48.1452 24.9729 47.8225 24.8715C46.425 24.604 45.0249 24.3498 43.6225 24.1089C39.6945 23.4155 39.2652 23.3755 39.0838 23.6715C38.9852 23.8315 37.4918 30.7542 37.4918 31.0502C37.4918 31.1969 37.5665 31.3809 37.6572 31.4555C37.7478 31.5329 39.0225 31.8075 40.4892 32.0689C43.3212 32.5782 43.4092 32.5915 43.4092 32.5222Z" fill="#0443BD"/>
</g>
<defs>
<clipPath id="clip0_2965_469">
<rect width="64" height="64" fill="white" transform="translate(0.5)"/>
</clipPath>
</defs>
</svg>
