<svg width="240" height="132" viewBox="0 0 240 132" fill="none" xmlns="http://www.w3.org/2000/svg">
<path fill-rule="evenodd" clip-rule="evenodd" d="M178.154 0H0L1.14441e-05 41.4614C14.7843 41.4614 26.7692 52.4477 26.7692 65.9999C26.7692 79.5521 14.7843 90.5383 1.14441e-05 90.5383L0 132L178.154 132V126.923H180.923V132L240 132V90.5383C225.216 90.5383 213.231 79.5521 213.231 65.9999C213.231 52.4477 225.216 41.4614 240 41.4614V0H180.923V8.46154H178.154V0ZM178.154 12.6924H180.923V21.1539H178.154V12.6924ZM180.923 25.3845H178.154V33.8461H180.923V25.3845ZM178.154 38.0769H180.923V46.5384H178.154V38.0769ZM180.923 50.7693H178.154V59.2308H180.923V50.7693ZM178.154 63.4614H180.923V71.923H178.154V63.4614ZM180.923 76.1538H178.154V84.6153H180.923V76.1538ZM178.154 88.8462H180.923V97.3077H178.154V88.8462ZM180.923 101.539H178.154V110H180.923V101.539ZM178.154 114.231H180.923V122.692H178.154V114.231Z" fill="#0444BD"/>
</svg>
